PathFileType	4	(X/Y/Z)	Patient4_TMGait_0pt6_02_right_43.trc.trc
DataRate	CameraRate	NumFrames	NumMarkers	Units	OrigDataRate	OrigDataStartFrame	OrigNumFrames
81.395348837209	81.395348837209	5	33	mm	81.395348837209	18	       141
Frame#	Time	Sacral			L.Shoulder			Chest			R.Shoulder			Neck			R.ASIS			L.ASIS			R.Thigh.Superior			R.Thigh.Lateral			R.Thigh.Inferior			R.Patella			L.Thigh.Superior			L.Thigh.Lateral			L.Thigh.Inferior			L.Patella			L.Shank.Superior			L.Shank.Lateral			L.Shank.Inferior			R.Shank.Superior			R.Shank.Lateral			R.Shank.Inferior			R.Heel			R.Midfoot.Superior			R.Midfoot.Lateral			R.Toe			L.Heel			L.Midfoot.Lateral			L.Midfoot.Superior			L.Toe			L.Elbow			L.Wrist			R.Elbow			R.Wrist			
		X1	Y1	Z1	X2	Y2	Z2	X3	Y3	Z3	X4	Y4	Z4	X5	Y5	Z5	X6	Y6	Z6	X7	Y7	Z7	X8	Y8	Z8	X9	Y9	Z9	X10	Y10	Z10	X11	Y11	Z11	X12	Y12	Z12	X13	Y13	Z13	X14	Y14	Z14	X15	Y15	Z15	X16	Y16	Z16	X17	Y17	Z17	X18	Y18	Z18	X19	Y19	Z19	X20	Y20	Z20	X21	Y21	Z21	X22	Y22	Z22	X23	Y23	Z23	X24	Y24	Z24	X25	Y25	Z25	X26	Y26	Z26	X27	Y27	Z27	X28	Y28	Z28	X29	Y29	Z29	X30	Y30	Z30	X31	Y31	Z31	X32	Y32	Z32	X33	Y33	Z33	

18	52.098857142857	865.883438372504	1013.534002281811	451.244128304751	1093.093852927019	1422.730930925660	268.825948527536	1175.930121093331	1349.701777899943	438.289455485554	1086.555921228008	1441.086611464490	599.235482792447	1086.301602551923	1487.464727711713	415.735509965857	1084.001250703018	936.166696757701	576.784845395694	1082.216739965432	959.770165979028	301.213321751681	1165.494488357140	779.673994004977	547.071585964944	1135.524348822088	656.385237631699	625.936647575029	1227.511324788263	624.262347483961	546.750645945604	1266.623464661993	532.342254104889	569.103302411091	1085.013183128736	737.079880048805	326.982087917162	968.294793169059	641.881242790854	268.522059029536	1031.702581906442	549.322824501126	330.212214975783	1019.627303127498	484.554155287680	340.118191606898	990.241906244617	418.977017452840	334.166598199133	894.085081988584	307.120867186240	287.579313185471	944.652688365988	196.129301700602	362.164052709787	1234.834383223537	443.080717063618	577.176554422245	1160.868725852567	341.520758103293	639.456806168018	1213.286578295508	244.317428074794	590.012790083292	1089.716025044910	76.552675859143	560.794106229902	1261.396185140088	125.074758163870	605.566922427692	1170.809706318855	62.529393945417	636.879703841603	1376.977623717904	68.558028889530	634.476954842895	813.478386296338	40.595213657911	413.008076317768	886.995405091812	35.721309532371	332.422265561101	970.747485899511	96.432654218219	356.357952057543	1098.778541621365	43.366684057513	330.354928766091	1137.768740304321	1097.770909060637	109.158855241632	1387.477096776365	1036.109995282701	128.846892604514	895.646977517144	1164.819779291507	726.164569083389	820.602707289525	914.985833176887	750.969886531687	
19	52.111142857143	866.933918296578	1011.901906783270	453.151181962274	1093.593378110127	1421.238780473056	270.754019480275	1176.312632154671	1348.459970305681	440.299763583003	1086.875489816956	1440.208360791998	601.008238658930	1086.497701138945	1486.000137500195	417.547382303127	1085.144127045679	933.914724651506	578.399731040097	1083.014361113383	959.048058033205	302.869303957882	1164.303994498162	774.779880519303	548.329203994915	1131.949938643930	651.551873242019	626.386164396697	1223.296782970620	618.411022139279	546.777468532474	1261.700379277938	528.347194372100	568.104698286128	1083.451723169995	735.701198353992	327.887408750426	965.453341121295	641.755449230760	269.148805557696	1027.710714477430	548.390762456584	330.647186867332	1015.127979124112	483.614202530059	340.321899851334	985.011235852597	418.500937049971	334.372042476456	888.031681641871	307.382717296749	287.715911070631	937.881462291570	195.922233676594	362.075531652135	1233.011426965777	439.427272950117	576.538202417358	1163.355419476433	334.824124231566	639.041912200568	1219.702034156548	239.852348456256	589.173481023711	1102.848240646836	67.715846617478	560.154056593852	1273.300153377714	121.438781844518	603.955552464896	1184.817172638394	56.175974233198	635.828921537690	1390.928467301253	68.533114146559	632.195714256678	806.021846026202	40.683976309214	412.863067119487	879.556957370543	35.685355681076	332.337818092521	963.319847761772	96.410913274210	356.270635393750	1091.330654081693	43.270690144851	330.345254171371	1137.966559373877	1096.848909875349	110.461224767664	1388.885691270916	1043.001711695985	130.885821313216	891.872505935122	1167.610924955674	727.611019655118	814.330311191581	918.367868699576	752.053119957095	
20	52.123428571429	868.081246284367	1010.096238169452	455.306133031905	1093.966571809501	1419.654248813734	272.824125030672	1176.708934284054	1347.149729216039	442.399680702905	1087.254123367957	1439.176760894170	602.961725029452	1086.652673025790	1484.450013052657	419.528846660362	1086.469142234033	931.576115684398	580.118917649340	1083.923848313866	958.202530470432	304.684575615240	1163.413490528143	769.771368373254	549.781659191168	1128.439702402626	646.687144722041	626.854961006513	1219.223367619605	612.599273579614	546.860483295955	1256.735986653330	524.188918552412	567.066473719829	1082.266668455857	734.276695101419	328.889630693266	963.043458493517	641.541286556774	269.936359510232	1024.209740919713	547.387090055590	331.228022332912	1011.115734020384	482.550749811413	340.710129032120	980.214782894086	417.886834473322	334.724418266192	882.295127896059	307.640723300485	287.943691961485	931.244077106244	195.632708052614	362.044346418604	1230.774544680625	435.561764574840	575.854655393271	1164.770870668446	328.424952702855	638.300686180544	1224.481304980208	235.526279232100	588.033525619000	1113.349927274023	60.196020809230	559.051681069579	1282.722231931729	117.914086076840	601.869578925508	1195.973775617008	50.727313284031	634.385737014080	1401.938045771164	67.878315937613	629.586938416782	798.567963995178	40.773999937701	412.699987087828	872.130409442205	35.647226114877	332.245134223622	955.891865686626	96.386235447292	356.196252012490	1083.902926895865	43.150000866056	330.334748522042	1137.845343527603	1095.653617273278	112.050873927690	1389.641399870388	1048.706766299977	133.132369184113	889.133870010215	1169.483470551422	729.237114489789	809.709174130642	920.604356314106	753.180125058322	
21	52.135714285714	869.296767048291	1008.191705788676	457.684380382729	1094.215607173127	1418.029785479619	275.041003387949	1177.132533184554	1345.816997852533	444.592510295528	1087.698109695761	1438.017469807724	605.109722048378	1086.788038098321	1482.868966766012	421.687711200789	1087.943152388496	929.224044228511	581.943087308629	1084.950216991134	957.257322570542	306.659452059813	1162.909265461302	764.880963416454	551.407691811486	1125.166635943965	641.994269999713	627.315516139940	1215.500516076800	607.104775280630	547.012067808132	1251.957243607861	520.073192793557	566.026088174187	1081.468068435621	732.826977626511	330.021669861125	961.072860406450	641.252931343435	270.909254819402	1021.203277824972	546.328118994750	331.988616008386	1007.595400181426	481.382091728708	341.313690645516	975.865120212867	417.145134835323	335.248692608905	876.886942858950	307.910171397083	288.283513736666	924.742150896362	195.272855309027	362.089528644494	1228.288470373758	431.623357326033	575.152299439687	1165.159520631924	322.484348710653	637.288420875190	1227.570097382346	231.384817317274	586.653346415229	1120.918445575640	54.051804257887	557.587670504782	1289.439920456923	114.517722946474	599.403663732220	1203.991327173461	46.228553659539	632.668863614295	1409.807026732776	66.550576696341	626.792536120137	791.117403239719	40.884954179749	412.515779798240	864.719372822873	35.612972325891	332.144943848442	948.473029042027	96.362966250212	356.134519999618	1076.501736148314	43.000436117034	330.322553939657	1137.390408808563	1094.216720924076	113.938979695163	1389.805307105368	1053.178126562892	135.573034474635	887.479206440999	1170.355433281284	731.074427782616	806.760183835801	921.637429035689	754.371523188605	
22	52.148000000000	870.545324694945	1006.284552842577	460.251258101669	1094.362715786681	1416.432202369967	277.407883268443	1177.602775995537	1344.516860025805	446.884356994983	1088.217223977781	1436.772938351397	607.459998444836	1086.937963853091	1481.324490052443	424.029174945443	1089.523145107105	926.945660519248	583.874862958320	1086.087050424167	956.251895948648	308.788920264262	1162.861874129419	760.352347454767	553.175324088454	1122.299312140130	637.678964397155	627.746992734494	1212.326117640263	602.191701421101	547.249338359642	1247.581677356597	516.199858851083	565.024910078942	1081.039935076902	731.388277198854	331.314403161144	959.534797839271	640.912435398650	272.086550216689	1018.691523321589	545.242551558136	332.953910476893	1004.573309663471	480.132203350830	342.148629614044	971.972417382158	416.295465973838	335.959320292070	871.813658492927	308.216185614172	288.755891827267	918.380547385789	194.865380957295	362.225586581572	1225.726156521868	427.766943533447	574.460915421929	1164.638531542926	317.163494043461	636.110584235119	1228.996318907785	227.490873066154	585.120911466355	1125.414446221508	49.279356077345	555.909722120710	1293.361258564593	111.295277125046	596.703991109829	1208.756068873824	42.688068987774	630.833662258125	1414.488839497235	64.600805588916	623.978981346544	783.672657152065	41.050403486147	412.309466360218	857.328427512020	35.594265774749	332.039317631842	941.080062493975	96.347022789282	356.081916531542	1069.133310651830	42.817649739693	330.307777747043	1136.582115281303	1092.582855702962	116.140064979538	1389.424116162852	1056.384305919997	138.192963134927	886.942562329154	1170.190287512007	733.145635140687	805.502512221648	921.451682450433	755.652457021163	
